<svg xmlns="http://www.w3.org/2000/svg" xml:space="preserve" width="110mm" height="28mm" style="shape-rendering:geometricPrecision;text-rendering:geometricPrecision;image-rendering:optimizeQuality;fill-rule:evenodd;clip-rule:evenodd" viewBox="0 0 11000 2800"><path d="m10001 483 1-1c-7 10-20 16-31 25-50 40-87 74-129 123-10 12-39 51-47 55 0 8-22 36-27 43-10 15-18 30-27 45-18 32-33 64-47 98-36 91-45 135-57 233-7-2-77-79-87-89-62-60-163-140-242-184-3-2-4-2-6-4l-67-34c-29-7-64-30-129-34-55-4-98 2-138 23-77 40-110 116-107 220 3 96 46 171 91 233l102 142c7 9 11 15 17 23l9 12c9 11 19 25 28 36 29 44 145 167 182 214 7 3 3 1 4 5 6 4 64 70 73 79 5 4 69 74 77 76 5 11 16 19 28 30 53 54 89 88 133 151 32 48 50 58 53 63l3-2c5 6 7 7 15 8-1-5-2-6-4-9-5-7-2-3-7-6-1-11-77-122-89-139l-82-120c-4-5-7-11-13-15 0-6-82-132-93-148-16-24-33-49-48-72-7-9-49-64-49-69-9-5-58-74-68-87l-9-11c0-1-1-1-2-1-1-10-17-22-23-37-5-1-18-22-23-29-9-12-15-21-22-32-18-25-28-41-44-66-25-39-56-97-73-146-14-43-37-153 19-168 34-8 79 4 110 18 75 33 126 70 189 120 45 36 82 70 118 103 39 37 69 70 106 113 30 35 64 83 110 111 31 18 43 22 63-19 24-49 7-108-21-151-6-9-6-8-2-19 9-29 15-59 21-89 26-134 55-217 122-318 63-96 126-157 216-223 33-24 105-74 159-42 44 27 61 89 68 151 1 63 3 121-1 183-5 61-14 115-20 172-2 8-6 20-2 27-5 6-5 13-6 22-4 29-22 109-29 134-50 174-119 301-195 458-18 37-151 239-181 287-9 14-68 104-74 109-10 19-27 39-39 56-5 8-15 24-25 36-10 14-18 24-28 38-22 30-63 78-73 90-29 31-62 63-87 109 3 5-1 1 6 3 2-9 37-43 43-49l111-120c15-16 26-31 40-47 9-10 18-19 27-30 35-45 156-190 165-201 41-51 86-111 123-167 5-7 32-53 40-57 0-9 2-7 9-20l33-56c83-144 167-335 210-497 7-28 20-69 22-98h-1c13-18 29-182 30-197 3-34 5-68 5-105 0-12 0-92-3-105 0 0 0-1-1-2l-1-2c2-18-10-63-15-79-4-13-7-23-13-34-3-8-14-25-15-32l-1-1c-7-6-8-10-14-18-14-18-31-35-52-47-135-83-270 44-292 51z" style="fill:#2b2a29"/><path d="m1287 596 698 1430h-65l-264-533H910l-260 533h-58l695-1430zm-5 129-348 714h699l-351-714zm930 1301h-60v-838h60v170c63-127 171-190 323-190 104 0 192 36 262 108 71 72 106 159 106 262v488h-59v-488c0-85-30-160-90-223-61-64-133-95-219-95-85 0-161 31-226 95-65 63-97 138-97 223v488zm1587-838h60v812c0 110-38 204-115 281s-171 115-283 115c-134 0-240-51-318-154l4-93c35 59 80 107 136 142 57 35 116 53 178 53 92 0 171-33 238-99 67-67 100-147 100-240v-141c-60 122-166 182-317 182-103 0-191-36-265-109-73-72-109-159-109-261v-488h59v488c0 86 32 160 94 223 63 64 137 95 222 95 86 0 160-31 223-95 62-63 93-137 93-223v-488zm971 858h-20c-128 0-247-33-357-100-111-67-198-156-262-267-63-111-95-230-95-355 0-197 71-367 213-509 143-142 313-213 512-213 132 0 258 35 377 104v69c-116-80-242-119-377-119-182 0-339 65-469 196s-195 288-195 471 65 340 195 472 287 197 469 197c135 0 261-39 377-119v69c-113 70-235 104-368 104zm909-56v53c-88 0-163-30-225-89s-93-134-93-226V630h60v1098c0 76 25 138 75 188s111 74 183 74zm493 58h-17c-117 0-220-44-307-133-88-89-131-192-131-310s43-220 130-306c86-86 194-129 321-129 128 0 238 50 330 152l-584 577c80 65 158 97 232 97s141-17 200-51 108-80 146-137v95c-88 97-195 145-320 145zm-19-826c-99 0-186 38-263 114-76 76-114 164-114 264 0 99 33 186 99 260l541-538c-77-67-165-100-263-100zm1356-34v838h-59v-209c-35 71-87 127-157 168-69 41-143 61-223 61-121 0-225-43-312-129s-130-190-130-310 43-224 130-310 191-129 312-129c80 0 155 21 228 63s123 98 152 168v-211h59zm-822 421c0 104 38 194 115 271 76 76 166 114 271 114s194-38 269-114c74-77 111-167 111-272s-37-196-112-273-165-115-269-115-194 39-270 116c-77 78-115 169-115 273zm1105 417h-60v-838h60v170c63-127 171-190 323-190 104 0 192 36 262 108 71 72 106 159 106 262v488h-59v-488c0-85-30-160-90-223-60-64-133-95-219-95-85 0-161 31-226 95-65 63-97 138-97 223v488z" style="fill:#2b2a29;fill-rule:nonzero"/></svg>