<svg xmlns="http://www.w3.org/2000/svg" xmlns:xlink="http://www.w3.org/1999/xlink">

  <symbol id="telegram" xmlns="http://www.w3.org/2000/svg" fill="none" viewBox="0 0 48 48">
    <path fill="#fff" d="M41.42 7.309s3.885-1.515 3.56 2.164c-.107 1.515-1.078 6.818-1.834 12.553l-2.59 16.99s-.216 2.489-2.159 2.922c-1.942.432-4.856-1.515-5.396-1.948-.432-.325-8.094-5.195-10.792-7.575-.756-.65-1.62-1.948.108-3.463L33.648 18.13c1.295-1.298 2.59-4.328-2.806-.649l-15.11 10.28s-1.727 1.083-4.964.109l-7.016-2.165s-2.59-1.623 1.835-3.246c10.793-5.086 24.068-10.28 35.831-15.15Z"/>
  </symbol>

  <symbol id="whatsapp" xmlns="http://www.w3.org/2000/svg" fill="none" viewBox="0 0 20 20">
    <path fill="#2BB741" d="m5.063 17.594.339.168c1.41.844 2.99 1.238 4.57 1.238C14.937 19 19 14.95 19 10c0-2.362-.96-4.669-2.652-6.356A8.977 8.977 0 0 0 9.972 1C5.007 1 .944 5.05 1.001 10.056c0 1.688.507 3.319 1.354 4.725l.225.338-.902 3.319 3.385-.844Z"/>
    <path fill="url(#a)" d="m5.063 17.594.339.168c1.41.844 2.99 1.238 4.57 1.238C14.937 19 19 14.95 19 10c0-2.362-.96-4.669-2.652-6.356A8.977 8.977 0 0 0 9.972 1C5.007 1 .944 5.05 1.001 10.056c0 1.688.507 3.319 1.354 4.725l.225.338-.902 3.319 3.385-.844Z"/>
    <path fill="#fff" d="M16.615 3.282C14.872 1.487 12.462.512 10 .512 4.77.513.564 4.77.615 9.95c0 1.64.462 3.23 1.231 4.666L.513 19.487l4.974-1.282c1.385.77 2.923 1.128 4.462 1.128 5.18 0 9.384-4.256 9.384-9.436 0-2.512-.974-4.871-2.718-6.615ZM10 17.744c-1.385 0-2.77-.36-3.949-1.077l-.307-.154-2.975.769.77-2.923-.206-.308c-2.256-3.64-1.18-8.461 2.513-10.718 3.692-2.256 8.462-1.18 10.718 2.513 2.256 3.692 1.18 8.462-2.513 10.718-1.18.77-2.615 1.18-4.051 1.18Zm4.513-5.693-.564-.256s-.82-.36-1.334-.615c-.05 0-.102-.052-.154-.052a.74.74 0 0 0-.358.103s-.052.051-.77.872a.282.282 0 0 1-.256.153h-.051a.389.389 0 0 1-.206-.102l-.256-.103c-.564-.256-1.077-.564-1.487-.974-.103-.103-.256-.205-.359-.308C8.359 10.41 8 10 7.744 9.54l-.052-.103c-.051-.051-.051-.103-.102-.205 0-.103 0-.205.051-.257 0 0 .205-.256.359-.41.103-.102.154-.256.256-.359.103-.154.154-.359.103-.513-.051-.256-.667-1.64-.82-1.948-.103-.154-.206-.206-.36-.257h-.564c-.102 0-.205.051-.307.051l-.052.052c-.102.051-.205.154-.307.205-.103.102-.154.205-.257.308a2.615 2.615 0 0 0-.564 1.59c0 .41.103.82.257 1.179l.05.154a8.543 8.543 0 0 0 1.898 2.615l.205.205c.154.154.308.257.41.41a9.162 9.162 0 0 0 3.693 1.95c.154.05.359.05.513.102h.513c.256 0 .564-.103.769-.205.154-.103.256-.103.359-.206l.102-.102c.103-.103.206-.154.308-.256.103-.103.205-.206.256-.308.103-.205.154-.462.206-.718v-.36s-.052-.05-.154-.102Z"/>
    <defs>
      <linearGradient id="a" x1="1.226" x2="16.586" y1="18.887" y2="4.581" gradientUnits="userSpaceOnUse">
        <stop stop-color="#20B038"/>
        <stop offset="1" stop-color="#60D66A"/>
      </linearGradient>
    </defs>
  </symbol>
</svg>
